# xmcd
#
# Track frame offsets:
# 150
# 16251
# 40045
# 57606
# 81121
# 107522
# 134554
# 157120
# 179615
# 212047
# 236704
#
# Disc length: 3564 seconds
#
#
# Revision: 0
# Processed by: cddbd v1.4PL0 Copyright (c) Steve Scherf et al.
# Submitted via: FreeRIP 2.35 
#
DISCID=980dea0b
DTITLE=Paul Gargiulo - Feel The Fire
DYEAR=2000
DGENRE=Blues
TTITLE0=Electric Women
TTITLE1=Feel The Fire
TTITLE2=Im So Tired
TTITLE3=Holy Water
TTITLE4=I walked Across The River
TTITLE5=Karinka
TTITLE6=Its A Good Thing
TTITLE7=Where Do I Go From Here
TTITLE8=A Kiss To The Wind
TTITLE9=Cold Steel Blues
TTITLE10=Tell The Truth
EXTD=
EXTT0=
EXTT1=
EXTT2=
EXTT3=
EXTT4=
EXTT5=
EXTT6=
EXTT7=
EXTT8=
EXTT9=
EXTT10=
PLAYORDER=
